<svg xmlns="http://www.w3.org/2000/svg" viewBox="0 0 350.3986 163.7119">
  <g id="full-rgb">
    <g id="logoMark">
      <path id="logoMark_CompoundPathItem_" data-name="logoMark &lt;CompoundPathItem&gt;" d="M58.0054,5.1908A27.8146,27.8146,0,0,0,47.7468,1.2886,88.3737,88.3737,0,0,0,30.8788.0125L.5738.0017a.5472.5472,0,0,0-.5474.547L0,76.7467a.5472.5472,0,0,0,.5472.5474H22.4548a.5472.5472,0,0,0,.5472-.547l.008-23.0166a.5472.5472,0,0,1,.5474-.547l15.3242.0053A42.5331,42.5331,0,0,0,51.68,51.4367a25.006,25.006,0,0,0,9.2243-5.0835,21.2738,21.2738,0,0,0,5.636-8.271,31.6065,31.6065,0,0,0,1.9321-11.4167,28.7248,28.7248,0,0,0-2.568-12.6443A22.506,22.506,0,0,0,58.0054,5.1908ZM42.8779,33.53c-1.9252,1.2686-5.5217,1.8844-10.9952,1.8825l-8.3191-.0029a.5472.5472,0,0,1-.5471-.5474l.0058-16.4778a.5471.5471,0,0,1,.5473-.547l8.3192.0029c5.6235.0019,9.258.6228,11.1126,1.8981,1.9153,1.3181,2.8855,3.646,2.8844,6.9195C45.8846,29.9016,44.8729,32.2138,42.8779,33.53Z" style="fill: #004"/>
      <path id="logoMark_PathItem_" data-name="logoMark &lt;PathItem&gt;" d="M100.514,46.003H131.29a.5471.5471,0,0,0,.5472-.547l.0054-15.5031a.5472.5472,0,0,0-.5472-.5474H100.52a.5472.5472,0,0,1-.5472-.5474l.0031-8.9273a.5472.5472,0,0,1,.5472-.547h36.605a.5472.5472,0,0,0,.5472-.5472V.5482a.5472.5472,0,0,0-.5472-.5472h-59.6a.5472.5472,0,0,0-.5472.5472l.0011,76.1993a.5472.5472,0,0,0,.5472.5472h61.13a.5472.5472,0,0,0,.5472-.5472V60.2083a.5472.5472,0,0,0-.5472-.5472H100.51a.5472.5472,0,0,1-.5472-.5474L99.9668,46.55A.5472.5472,0,0,1,100.514,46.003Z" style="fill: #004"/>
      <path id="logoMark_PathItem_2" data-name="logoMark &lt;PathItem&gt;" d="M170.2567,77.2942h21.8886a.5472.5472,0,0,0,.5472-.5472V21.7764a.5471.5471,0,0,1,.5472-.5472h21.1234a.5472.5472,0,0,0,.5472-.5472V.5472A.5472.5472,0,0,0,214.3631,0H147.5839a.5472.5472,0,0,0-.5472.5472V20.682a.5472.5472,0,0,0,.5472.5472h21.5784a.5472.5472,0,0,1,.5472.5472V76.747A.5472.5472,0,0,0,170.2567,77.2942Z" style="fill: #004"/>
      <path id="logoMark_CompoundPathItem_2" data-name="logoMark &lt;CompoundPathItem&gt;" d="M233.07.3665l-26.8195,76.2a.5471.5471,0,0,0,.5161.7288h22.09a.5472.5472,0,0,0,.5253-.3938l2.8185-9.652a.5473.5473,0,0,1,.5255-.3938l25.3676.0088a.5472.5472,0,0,1,.5265.3988l2.7128,9.6312a.5473.5473,0,0,0,.5268.3988h22.2884a.5472.5472,0,0,0,.5163-.7285L257.8975.3669a.5473.5473,0,0,0-.5163-.3659H233.5859A.547.547,0,0,0,233.07.3665Zm3.6223,50.742,8.289-28.1441a.5472.5472,0,0,1,1.0507.0033l8.1031,28.15a.5472.5472,0,0,1-.526.6986L237.2168,51.81A.5472.5472,0,0,1,236.6921,51.1085Z" style="fill: #004"/>
      <path id="logoMark_PathItem_3" data-name="logoMark &lt;PathItem&gt;" d="M315.4868.0027h-21.934a.5472.5472,0,0,0-.5472.5472V76.7477a.5472.5472,0,0,0,.5472.5472h56.2986a.5472.5472,0,0,0,.5472-.5472v-20.47a.5472.5472,0,0,0-.5472-.5472H316.58a.5471.5471,0,0,1-.5472-.5472L316.034.55A.5472.5472,0,0,0,315.4868.0027Z" style="fill: #004"/>
      <path id="logoMark_PathItem_4" data-name="logoMark &lt;PathItem&gt;" d="M247.4155,163.7119h21.9557a.5472.5472,0,0,0,.5472-.5472V100.9113a.5472.5472,0,0,0-.5472-.5472H206.2846a.5472.5472,0,0,0-.5472.5466l-.0236,20.4806a.5471.5471,0,0,0,.5472.5478h40.033a.5643.5643,0,0,1,.5542.5661l.0236,40.6522A.5455.5455,0,0,0,247.4155,163.7119Z" style="fill: #735bf5"/>
    </g>
  </g>
</svg>
